{
    "asset": {
        "generator": "FBX2glTF",
        "version": "2.0"
    },
    "scene": 0,
    "buffers": [
        {
            "byteLength": 219240,
            "uri": "buffer.bin"
        }
    ],
    "bufferViews": [
        {
            "buffer": 0,
            "byteLength": 17160,
            "byteOffset": 0,
            "target": 34963
        },
        {
            "buffer": 0,
            "byteLength": 66960,
            "byteOffset": 17160,
            "target": 34962
        },
        {
            "buffer": 0,
            "byteLength": 66960,
            "byteOffset": 84120,
            "target": 34962
        },
        {
            "buffer": 0,
            "byteLength": 44640,
            "byteOffset": 151080,
            "target": 34962
        },
        {
            "buffer": 0,
            "byteLength": 2016,
            "byteOffset": 195720,
            "target": 34963
        },
        {
            "buffer": 0,
            "byteLength": 8064,
            "byteOffset": 197736,
            "target": 34962
        },
        {
            "buffer": 0,
            "byteLength": 8064,
            "byteOffset": 205800,
            "target": 34962
        },
        {
            "buffer": 0,
            "byteLength": 5376,
            "byteOffset": 213864,
            "target": 34962
        }
    ],
    "scenes": [
        {
            "name": "Root Scene",
            "nodes": [
                0
            ]
        }
    ],
    "accessors": [
        {
            "componentType": 5123,
            "type": "SCALAR",
            "count": 8580,
            "bufferView": 0,
            "byteOffset": 0
        },
        {
            "componentType": 5126,
            "type": "VEC3",
            "count": 5580,
            "bufferView": 1,
            "byteOffset": 0,
            "min": [
                -0.0711003094911575,
                -0.110499992966652,
                -4.73546970169991e-05
            ],
            "max": [
                0.0548479482531548,
                0.120466150343418,
                0.219831049442291
            ]
        },
        {
            "componentType": 5126,
            "type": "VEC3",
            "count": 5580,
            "bufferView": 2,
            "byteOffset": 0
        },
        {
            "componentType": 5126,
            "type": "VEC2",
            "count": 5580,
            "bufferView": 3,
            "byteOffset": 0
        },
        {
            "componentType": 5123,
            "type": "SCALAR",
            "count": 1008,
            "bufferView": 4,
            "byteOffset": 0
        },
        {
            "componentType": 5126,
            "type": "VEC3",
            "count": 672,
            "bufferView": 5,
            "byteOffset": 0,
            "min": [
                -0.0701562985777855,
                -0.0893333330750465,
                0.00470264442265034
            ],
            "max": [
                0.0539401099085808,
                0.0981800407171249,
                0.148746907711029
            ]
        },
        {
            "componentType": 5126,
            "type": "VEC3",
            "count": 672,
            "bufferView": 6,
            "byteOffset": 0
        },
        {
            "componentType": 5126,
            "type": "VEC2",
            "count": 672,
            "bufferView": 7,
            "byteOffset": 0
        }
    ],
    "images": [
        {
            "name": "Texture",
            "uri": "data:image/png;base64,"
        },
        {
            "name": "Texture",
            "uri": "data:image/png;base64,"
        },
        {
            "name": "Texture",
            "uri": "data:image/png;base64,"
        }
    ],
    "samplers": [
        {}
    ],
    "textures": [
        {
            "name": "Texture",
            "sampler": 0,
            "source": 0
        },
        {
            "name": "Texture",
            "sampler": 0,
            "source": 1
        },
        {
            "name": "Texture",
            "sampler": 0,
            "source": 2
        }
    ],
    "materials": [
        {
            "name": "ground",
            "alphaMode": "OPAQUE",
            "extras": {
                "fromFBX": {
                    "shadingModel": "Phong",
                    "isTruePBR": false
                }
            },
            "normalTexture": {
                "index": 0,
                "texCoord": 0
            },
            "pbrMetallicRoughness": {
                "baseColorTexture": {
                    "index": 1,
                    "texCoord": 0
                },
                "baseColorFactor": [
                    0.800000011920929,
                    0.800000011920929,
                    0.800000011920929,
                    1.0
                ],
                "metallicFactor": 0.400000005960464,
                "roughnessFactor": 0.415087103843689
            }
        },
        {
            "name": "hotel_glas",
            "alphaMode": "OPAQUE",
            "extras": {
                "fromFBX": {
                    "shadingModel": "Phong",
                    "isTruePBR": false
                }
            },
            "emissiveFactor": [
                0.343999981880188,
                0.343999981880188,
                0.343999981880188
            ],
            "pbrMetallicRoughness": {
                "baseColorTexture": {
                    "index": 2,
                    "texCoord": 0
                },
                "baseColorFactor": [
                    0.800000011920929,
                    0.800000011920929,
                    0.800000011920929,
                    0.439999997615814
                ],
                "metallicFactor": 0.400000005960464,
                "roughnessFactor": 0.415087103843689
            }
        }
    ],
    "meshes": [
        {
            "name": "Residential Buildings 002",
            "primitives": [
                {
                    "material": 0,
                    "mode": 4,
                    "attributes": {
                        "NORMAL": 2,
                        "POSITION": 1,
                        "TEXCOORD_0": 3
                    },
                    "indices": 0
                },
                {
                    "material": 1,
                    "mode": 4,
                    "attributes": {
                        "NORMAL": 6,
                        "POSITION": 5,
                        "TEXCOORD_0": 7
                    },
                    "indices": 4
                }
            ]
        }
    ],
    "nodes": [
        {
            "name": "RootNode",
            "translation": [
                0.0,
                0.0,
                0.0
            ],
            "rotation": [
                0.0,
                0.0,
                0.0,
                1.0
            ],
            "scale": [
                1.0,
                1.0,
                1.0
            ],
            "children": [
                1
            ]
        },
        {
            "name": "Residential Buildings 002",
            "translation": [
                0.0,
                0.0,
                0.0
            ],
            "rotation": [
                -0.707106828689575,
                0.0,
                0.0,
                0.707106709480286
            ],
            "scale": [
                100.0,
                100.0,
                100.0
            ],
            "mesh": 0
        }
    ]
}